<?xml version="1.0" encoding="utf-8"?>
<!-- Generator: Adobe Illustrator 16.0.0, SVG Export Plug-In . SVG Version: 6.00 Build 0)  -->
<!DOCTYPE svg PUBLIC "-//W3C//DTD SVG 1.1//EN" "http://www.w3.org/Graphics/SVG/1.1/DTD/svg11.dtd">
<svg version="1.1" id="Layer_1" xmlns="http://www.w3.org/2000/svg" xmlns:xlink="http://www.w3.org/1999/xlink" x="0px" y="0px"
	 width="384.465px" height="398px" viewBox="0 0 384.465 398" enable-background="new 0 0 384.465 398" xml:space="preserve">
<g>
	<g>
		<g>
			<g>
				<path fill="#2BA2DC" d="M300.666,394c0,6.628-5.373,12-12,12H20c-6.627,0-12-5.372-12-12V20c0-6.628,5.373-12,12-12h268.666
					c6.627,0,12,5.372,12,12V394z"/>
			</g>
		</g>
	</g>
</g>
<g>
	<g>
		<g>
			<g>
				<g>
					<circle cx="48.396" cy="95.83" r="26.26"/>
				</g>
			</g>
			<text transform="matrix(1 0 0 1 38.7307 98.1328)" fill="#FFFFFF" font-family="'MyriadPro-Regular'" font-size="7.8469">Game</text>
		</g>
	</g>
</g>
<g>
	<g>
		<g>
			<g>
				<g>
					<circle cx="48.396" cy="164.388" r="26.26"/>
				</g>
			</g>
			<text transform="matrix(1 0 0 1 35.1414 166.6904)" fill="#FFFFFF" font-family="'MyriadPro-Regular'" font-size="7.8469">Website</text>
		</g>
	</g>
</g>
<g>
	<g>
		<g>
			<g>
				<g>
					<circle cx="48.396" cy="232.946" r="26.26"/>
				</g>
			</g>
			<text transform="matrix(1 0 0 1 41.5281 235.248)" fill="#FFFFFF" font-family="'MyriadPro-Regular'" font-size="7.8469">App</text>
		</g>
	</g>
</g>
<text transform="matrix(1 0 0 1 35.4387 55.0566)" fill="#FFFFFF" font-family="'MyriadPro-Regular'" font-size="7.8469">Product</text>
<g>
	<g>
		<g>
			<g>
				<g>
					<circle cx="48.396" cy="370.062" r="26.26"/>
				</g>
			</g>
			<text transform="matrix(1 0 0 1 45.5081 367.6562)" fill="#FFFFFF" font-family="'MyriadPro-Regular'" font-size="7.8469">IT</text>
			<text transform="matrix(1 0 0 1 32.5457 377.0723)" fill="#FFFFFF" font-family="'MyriadPro-Regular'" font-size="7.8469">Company</text>
		</g>
	</g>
</g>
<g>
	<g>
		<g>
			<g>
				<g>
					<circle cx="48.396" cy="301.504" r="26.26"/>
				</g>
			</g>
			<text transform="matrix(1 0 0 1 30.3904 299.0977)" fill="#FFFFFF" font-family="'MyriadPro-Regular'" font-size="7.8469">Embedded</text>
			<text transform="matrix(1 0 0 1 36.9031 308.5137)" fill="#FFFFFF" font-family="'MyriadPro-Regular'" font-size="7.8469">system</text>
		</g>
	</g>
</g>
<text transform="matrix(1 0 0 1 141.5535 55.0566)" fill="#FFFFFF" font-family="'MyriadPro-Regular'" font-size="7.8469">Meetup</text>
<g>
	<g>
		<g>
			<g>
				<g>
					<circle fill="#CA79B2" cx="154.333" cy="95.83" r="26.26"/>
				</g>
			</g>
			<text transform="matrix(1 0 0 1 144.3264 98.1328)" fill="#FFFFFF" font-family="'MyriadPro-Regular'" font-size="7.8469">Demo</text>
		</g>
	</g>
</g>
<g>
	<g>
		<g>
			<g>
				<g>
					<circle fill="#CA79B2" cx="154.333" cy="164.388" r="26.26"/>
				</g>
			</g>
			<text transform="matrix(1 0 0 1 133.9275 166.6904)" fill="#FFFFFF" font-family="'MyriadPro-Regular'" font-size="7.8469">Presentation</text>
		</g>
	</g>
</g>
<g>
	<g>
		<g>
			<g>
				<g>
					<circle fill="#CA79B2" cx="154.333" cy="232.946" r="26.26"/>
				</g>
			</g>
			<text transform="matrix(1 0 0 1 137.6174 235.249)" fill="#FFFFFF" font-family="'MyriadPro-Regular'" font-size="7.8469">Workshop</text>
		</g>
	</g>
</g>
<g>
	<g>
		<g>
			<g>
				<g>
					<circle fill="#CA79B2" cx="154.333" cy="301.504" r="26.26"/>
				</g>
			</g>
			<text transform="matrix(1 0 0 1 137.5447 303.8066)" fill="#FFFFFF" font-family="'MyriadPro-Regular'" font-size="7.8469">Exposition</text>
		</g>
	</g>
</g>
<g>
	<g>
		<g>
			<g>
				<g>
					<circle fill="#CA79B2" cx="154.333" cy="370.062" r="26.26"/>
				</g>
			</g>
			<text transform="matrix(1 0 0 1 149.241 372.3643)" fill="#FFFFFF" font-family="'MyriadPro-Regular'" font-size="7.8469">Fair</text>
		</g>
	</g>
</g>
<text transform="matrix(1 0 0 1 249.636 55.0566)" fill="#FFFFFF" font-family="'MyriadPro-Regular'" font-size="7.8469">Article</text>
<g>
	<g>
		<g>
			<g>
				<g>
					<circle fill="#CA79B2" cx="260.271" cy="95.83" r="26.26"/>
				</g>
			</g>
			<text transform="matrix(1 0 0 1 239.7161 98.1328)" fill="#FFFFFF" font-family="'MyriadPro-Regular'" font-size="7.8469">Social Media</text>
		</g>
	</g>
</g>
<g>
	<g>
		<g>
			<g>
				<g>
					<circle fill="#CA79B2" cx="260.271" cy="164.388" r="26.26"/>
				</g>
			</g>
			<text transform="matrix(1 0 0 1 244.3997 166.6904)" fill="#FFFFFF" font-family="'MyriadPro-Regular'" font-size="7.8469">Magazine</text>
		</g>
	</g>
</g>
<g>
	<g>
		<g>
			<g>
				<g>
					<circle fill="#CA79B2" cx="260.271" cy="232.946" r="26.26"/>
				</g>
			</g>
			<text transform="matrix(1 0 0 1 238.4241 235.249)" fill="#FFFFFF" font-family="'MyriadPro-Regular'" font-size="7.8469">Encyclopedia</text>
		</g>
	</g>
</g>
<g>
	<g>
		<g>
			<g>
				<g>
					<circle fill="#CA79B2" cx="260.271" cy="301.504" r="26.26"/>
				</g>
			</g>
			<text transform="matrix(1 0 0 1 252.3792 303.8066)" fill="#FFFFFF" font-family="'MyriadPro-Regular'" font-size="7.8469">Press</text>
		</g>
	</g>
</g>
<g>
	<g>
		<g>
			<g>
				<g>
					<circle fill="#CA79B2" cx="260.271" cy="370.062" r="26.26"/>
				</g>
			</g>
			<text transform="matrix(1 0 0 1 251.8499 372.3643)" fill="#FFFFFF" font-family="'MyriadPro-Regular'" font-size="7.8469">Client</text>
		</g>
	</g>
</g>
<text transform="matrix(1 0 0 1 119.325 30.5078)" font-family="'MyriadPro-Regular'" font-size="19.4538">Portfolio</text>
<g>
	<g>
		<g>
			<g>
				<g>
					<circle fill="#2BA2DC" cx="-57.54" cy="95.83" r="26.26"/>
				</g>
			</g>
			<text transform="matrix(1 0 0 1 -63.696 102.874)" fill="#FFFFFF" font-family="'MyriadPro-Regular'" font-size="24">1</text>
		</g>
	</g>
</g>
<text transform="matrix(1 0 0 1 -68.946 55.0566)" fill="#2BA2DC" font-family="'MyriadPro-Regular'" font-size="7.8469">Level</text>
<g>
	<g>
		<g>
			<g>
				<g>
					<circle fill="#2BA2DC" cx="-57.54" cy="164.388" r="26.26"/>
				</g>
			</g>
			<text transform="matrix(1 0 0 1 -63.696 171.4316)" fill="#FFFFFF" font-family="'MyriadPro-Regular'" font-size="24">2</text>
		</g>
	</g>
</g>
<g>
	<g>
		<g>
			<g>
				<g>
					<circle fill="#2BA2DC" cx="-57.54" cy="235.248" r="26.26"/>
				</g>
			</g>
			<text transform="matrix(1 0 0 1 -63.696 242.292)" fill="#FFFFFF" font-family="'MyriadPro-Regular'" font-size="24">3</text>
		</g>
	</g>
</g>
<g>
	<g>
		<g>
			<g>
				<g>
					<circle fill="#2BA2DC" cx="-57.54" cy="303.807" r="26.26"/>
				</g>
			</g>
			<text transform="matrix(1 0 0 1 -63.696 310.8496)" fill="#FFFFFF" font-family="'MyriadPro-Regular'" font-size="24">4</text>
		</g>
	</g>
</g>
<g>
	<g>
		<g>
			<g>
				<g>
					<circle fill="#2BA2DC" cx="-57.54" cy="370.062" r="26.26"/>
				</g>
			</g>
			<text transform="matrix(1 0 0 1 -63.696 377.1055)" fill="#FFFFFF" font-family="'MyriadPro-Regular'" font-size="24">5</text>
		</g>
	</g>
</g>
</svg>
