<?xml version="1.0" encoding="UTF-8" standalone="no"?>
<!-- Created with Inkscape (http://www.inkscape.org/) -->

<svg
   xmlns:dc="http://purl.org/dc/elements/1.1/"
   xmlns:cc="http://creativecommons.org/ns#"
   xmlns:rdf="http://www.w3.org/1999/02/22-rdf-syntax-ns#"
   xmlns:svg="http://www.w3.org/2000/svg"
   xmlns="http://www.w3.org/2000/svg"
   xmlns:sodipodi="http://sodipodi.sourceforge.net/DTD/sodipodi-0.dtd"
   xmlns:inkscape="http://www.inkscape.org/namespaces/inkscape"
   version="1.1"
   id="svg4831"
   width="558"
   height="132"
   viewBox="0 0 558 132"
   sodipodi:docname="logo_onderwijsarchitect.svg"
   inkscape:version="0.92.4 (fd57863, 2020-04-02)">
  <metadata
     id="metadata4837">
    <rdf:RDF>
      <cc:Work
         rdf:about="">
        <dc:format>image/svg+xml</dc:format>
        <dc:type
           rdf:resource="http://purl.org/dc/dcmitype/StillImage" />
        <dc:title></dc:title>
      </cc:Work>
    </rdf:RDF>
  </metadata>
  <defs
     id="defs4835" />
  <sodipodi:namedview
     pagecolor="#ffffff"
     bordercolor="#666666"
     borderopacity="1"
     objecttolerance="10"
     gridtolerance="10"
     guidetolerance="10"
     inkscape:pageopacity="0"
     inkscape:pageshadow="2"
     inkscape:window-width="1853"
     inkscape:window-height="1007"
     id="namedview4833"
     showgrid="false"
     inkscape:zoom="1.4395579"
     inkscape:cx="275.32417"
     inkscape:cy="53.715389"
     inkscape:window-x="67"
     inkscape:window-y="34"
     inkscape:window-maximized="1"
     inkscape:current-layer="svg4831"
     inkscape:pagecheckerboard="true" />
  <g
     id="g5500"
     transform="translate(-5.3129036,26.861749)">
    <g
       id="g5605"
       transform="translate(-2.9471831,-167.98944)">
      <path
         inkscape:connector-curvature="0"
         id="path5502"
         d="m 88.087906,257.46391 c -3.091732,-3.22707 -2.804274,-4.70956 1.736687,-8.9565 3.500544,-3.27388 5.309296,-1.85761 2.559501,2.00412 -1.90855,2.68031 -1.995945,3.30065 -0.800191,5.6798 0.738301,1.46897 1.506805,3.00835 1.707786,3.42085 0.950006,1.94982 -2.735063,0.42852 -5.203783,-2.14827 z m 411.329964,0.26341 c 2.56542,-3.2614 2.56982,-3.85809 0.0545,-7.39056 -1.31046,-1.84038 -1.64575,-3.0643 -0.9562,-3.49046 1.27323,-0.7869 3.33227,0.8055 6.13981,4.74832 l 2.07215,2.91006 -2.80592,2.92875 c -1.54328,1.61081 -3.65441,2.92875 -4.69143,2.92875 -1.79998,0 -1.7915,-0.11949 0.18709,-2.63486 z M 166.09151,231.5257 c -0.47383,-0.76668 -3.57449,-15.12855 -11.42819,-52.93408 -2.83691,-13.65609 -2.88576,-14.31273 -1.13446,-15.25 2.84596,-1.52311 25.58683,-1.15612 32.73075,0.5282 22.25639,5.2474 32.79715,23.54492 24.15502,41.93027 -4.48519,9.54183 -18.65391,19.36572 -35.27952,24.46109 -7.6916,2.3573 -8.3144,2.44438 -9.0436,1.26452 z m 19.11915,-12.63064 c 13.33618,-6.67612 21.28631,-14.4234 21.27605,-20.73322 -0.006,-3.72832 -3.60537,-8.55279 -8.20703,-11.0006 -3.63768,-1.93502 -5.80826,-2.28293 -14.28923,-2.29033 -5.5,-0.005 -11.30218,0.35358 -12.89372,0.7964 l -2.89373,0.80512 0.67655,9.62474 c 0.65888,9.37335 2.37391,23.50025 3.15826,26.01501 0.68119,2.18401 4.00525,1.37219 13.17285,-3.21712 z m 227.29293,7.21712 c -1.24016,-3.4375 -2.71727,-6.82661 -3.28246,-7.53136 -0.75046,-0.93576 -4.02187,-1.20548 -12.12915,-1 l -11.10153,0.28136 -1.20144,4.8681 c -0.66079,2.67746 -1.44539,5.11206 -1.74355,5.41022 -0.29816,0.29817 -2.36747,-0.005 -4.59846,-0.67319 -3.0618,-0.91734 -3.93696,-1.63088 -3.5694,-2.91022 0.26782,-0.9322 3.27007,-15.86991 6.67167,-33.19491 3.40159,-17.325 6.53887,-31.88645 6.97172,-32.35877 0.43286,-0.47233 3.41905,-0.5533 6.63599,-0.17993 l 5.84898,0.67884 16.6682,32.2078 c 9.16751,17.71428 16.81402,32.84731 16.99224,33.62896 0.22379,0.98144 -2.15123,2.26007 -7.67595,4.13247 -11.7883,3.9952 -11.83764,3.98376 -14.48686,-3.35937 z M 398.7987,208.87623 c 2.64454,-0.35974 5.04539,-1.27204 5.33522,-2.02734 0.28984,-0.7553 -1.3801,-6.3488 -3.71098,-12.42999 -3.1993,-8.3469 -4.67417,-11.05672 -6.01783,-11.05672 -2.05358,0 -2.27932,0.61343 -4.36458,11.86047 -2.41285,13.01389 -1.97987,15.60031 2.44992,14.63464 0.825,-0.17985 3.66371,-0.62132 6.30825,-0.98106 z m -80.58064,14.73595 c -2.94666,-3.7125 -7.97035,-10.2375 -11.16375,-14.5 -8.21835,-10.96972 -9.17565,-10.63489 -10.00671,3.5 -1.01297,17.22881 -0.82608,16.75 -6.53796,16.75 h -4.82189 l -0.57971,-11.25 c -0.31883,-6.1875 -0.70072,-23.85 -0.84864,-39.25 l -0.26895,-28 h 6.46289 6.46289 l 12.15503,17.3322 c 13.72732,19.57419 14.95326,21.03373 16.42834,19.55865 0.5629,-0.56289 1.43007,-8.57007 1.92707,-17.79373 0.49699,-9.22366 1.10363,-16.97031 1.34809,-17.21476 0.24445,-0.24446 2.82519,-0.72643 5.73496,-1.07105 l 5.29049,-0.62658 -0.65885,12.40764 c -0.36238,6.82419 -1.11324,23.20763 -1.66859,36.40763 -0.55535,13.2 -1.24895,25.4625 -1.54134,27.25 -0.53001,3.24024 -0.54936,3.25 -6.4437,3.25 h -5.91209 z m 31.85952,4.55836 c -0.46559,-2.23782 -1.91921,-28.21681 -2.03158,-36.30836 l -0.0555,-4 h 7 7 l -0.34556,6 c -0.19006,3.3 -1.09006,12.75 -2,21 l -1.65444,15 -3.7163,0.30835 c -3.19583,0.26518 -3.78356,-0.0149 -4.19657,-1.99999 z m 171.96272,0.64425 c -10.29576,-2.59059 -17.90618,-8.27178 -20.99901,-15.67579 -1.54649,-3.70217 -1.53974,-3.73099 1.19695,-5.10966 6.779,-3.41506 7.75662,-3.15931 12.75529,3.33685 7.83409,10.18097 14.97752,13.3481 21.08322,9.34749 2.71888,-1.78148 5.4137,-6.22851 5.4137,-8.93376 0,-3.412 -6.73352,-8.02691 -19.55152,-13.39991 -10.1829,-4.26843 -13.84495,-6.35746 -17.76037,-10.13141 l -4.93245,-4.75425 0.40827,-9.31609 c 0.69936,-15.9581 6.19423,-22.43229 18.83607,-22.19309 9.33915,0.17671 34.64704,5.77248 37.17893,8.22056 0.63722,0.61613 -3.86867,24.13298 -4.8105,25.10664 -0.23952,0.24761 -3.23289,-0.28459 -6.65195,-1.18265 -11.7757,-3.09305 -22.23597,-4.22808 -26.68394,-2.89544 -4.44953,1.33312 -5.29423,3.69334 -2.28254,6.37775 0.9625,0.8579 6.59414,3.62189 12.51476,6.14219 20.0313,8.52698 21.48524,9.75532 22.4268,18.94709 0.70167,6.84993 -1.09138,13.22151 -4.31514,15.3338 -3.49773,2.2918 -16.16906,2.70645 -23.82657,0.77968 z m -270.71937,-0.37008 c -8.61824,-0.32039 -15.94058,-0.85487 -16.27188,-1.18774 -0.8821,-0.88628 -16.96556,-56.82372 -16.47463,-57.2979 1.14511,-1.10602 45.27665,-10.63284 45.96567,-9.92276 1.31574,1.35596 5.03865,17.64055 4.21284,18.42764 -0.41936,0.3997 -7.96248,2.59466 -16.76248,4.87768 -8.8,2.28302 -16.36172,4.50583 -16.80383,4.93958 -1.11291,1.09187 0.27009,10.65365 1.85321,12.81271 1.23056,1.67825 2.00043,1.61991 15.12359,-1.14588 21.30212,-4.48957 19.92283,-4.51502 20.70591,0.38206 0.36529,2.28438 0.40292,4.57612 0.0836,5.09275 -0.31929,0.51663 -5.84148,0.97875 -12.27152,1.02694 -6.43004,0.0482 -13.94098,0.38668 -16.69098,0.75223 l -5,0.66463 0.15181,4.63005 c 0.0835,2.54652 0.69694,5.6486 1.36319,6.89351 1.20707,2.25542 1.26962,2.26101 17.61158,1.57085 18.04035,-0.76189 18.53711,-0.6091 16.64045,5.11813 -1.0832,3.27088 -0.54494,3.21655 -23.43655,2.36552 z M 44.250537,225.80434 c -12.14715,-2.94417 -20.49774,-9.29973 -23.48782,-17.87638 -2.12705,-6.10115 -2.43621,-23.8849 -0.5244,-30.16474 1.86302,-6.11958 5.30097,-10.66147 9.76532,-12.90104 5.55259,-2.78548 25.85159,-2.86441 35.73681,-0.13895 l 6.749996,1.86105 v 11.78852 11.78853 l -12.749996,0.38046 c -14.85006,0.44313 -20.7597,2.39119 -24.27585,8.00236 -2.89772,4.62424 -2.12662,10.39856 1.86492,13.96532 3.89532,3.48077 14.43292,5.85271 26.00134,5.85271 7.234734,0 9.061697,0.30252 9.552597,1.58179 1.104976,2.87952 0.630442,6.19523 -0.974798,6.81122 -2.896328,1.11143 -21.835929,0.46031 -27.658119,-0.95085 z m 58.422523,-0.27889 C 89.655541,220.87022 81.476858,205.56566 81.21,185.36218 c -0.153409,-11.61448 1.764297,-17.99599 7.296735,-24.28117 10.589034,-12.02978 31.531595,-12.12353 44.792855,-0.20052 6.00748,5.40124 11.61493,15.71805 13.14139,24.17806 1.97123,10.92502 -2.05139,23.22082 -10.57955,32.33811 -8.09514,8.65435 -22.11591,12.08844 -33.18837,8.12879 z m 16.07676,-30.8286 c 2.73793,-1.36791 6.02958,-4.13133 7.75,-6.5063 2.5556,-3.52791 2.99063,-5.03062 2.99063,-10.33053 0,-7.33412 -2.5315,-11.9888 -8.01993,-14.74629 -12.94468,-6.50362 -32.087042,7.08701 -29.515498,20.95531 2.35461,12.69838 13.668548,17.18591 26.794798,10.62781 z m 341.74063,30.85104 c -8.06315,-2.10757 -15.11795,-6.16272 -18.55041,-10.66292 -5.44777,-7.14238 -7.68292,-21.62974 -5.05957,-32.79411 2.47849,-10.54791 4.71595,-14.10427 10.77239,-17.12232 4.65221,-2.3183 6.3967,-2.60447 15.78393,-2.58922 9.62769,0.0156 22.31902,2.17472 25.94086,4.41315 1.22504,0.75711 1.4956,11.4977 0.47688,18.93014 l -0.63593,4.63957 h -10.68257 c -6.61796,0 -12.61828,0.57484 -15.76996,1.51079 -12.87171,3.82249 -15.52243,17.28539 -4.49662,22.83819 4.43866,2.23538 8.10247,2.87612 20.18666,3.53031 l 11.46566,0.62071 0.95374,3.33628 c 0.73726,2.57898 0.63156,3.54022 -0.46565,4.23469 -2.47107,1.56404 -22.85647,0.96088 -29.91941,-0.88526 z"
         style="fill:#1fa5e4;fill-opacity:1;stroke:#ebfbff;stroke-width:5.19999981;stroke-linecap:round;stroke-miterlimit:4;stroke-dasharray:none;stroke-opacity:1;paint-order:markers stroke fill" />
      <path
         sodipodi:nodetypes="cssscc"
         inkscape:connector-curvature="0"
         id="path5508-6"
         d="m 347.71625,162.76762 c 3.86213,-3.86213 8.61386,-4.79203 13.24859,-2.5927 3.4616,1.64263 6.67449,6.47112 6.67449,10.03075 0,1.60707 -1.10344,3.99732 -2.6164,6.16643 -1.47464,2.11419 -3.33832,4.01829 -4.94851,4.78237 -13.04341,5.81692 -19.73012,-10.49489 -12.35817,-18.38685 z"
         style="fill:#e882e5;fill-opacity:1;stroke:#ebfeff;stroke-width:2.4000001;stroke-miterlimit:4;stroke-dasharray:none;stroke-opacity:1" />
      <text
         transform="scale(1.1003027,0.90884081)"
         id="text5581"
         y="288.17587"
         x="92.964172"
         style="font-style:normal;font-weight:normal;font-size:26.14778328px;line-height:1.25;font-family:sans-serif;letter-spacing:0px;word-spacing:0px;fill:#e882e5;fill-opacity:1;stroke:#ebfeff;stroke-width:4.5999999;stroke-miterlimit:4;stroke-dasharray:none;stroke-opacity:1;paint-order:markers stroke fill"
         xml:space="preserve"><tspan
           style="fill:#e882e5;fill-opacity:1;stroke:#ebfeff;stroke-width:4.5999999;stroke-miterlimit:4;stroke-dasharray:none;stroke-opacity:1;paint-order:markers stroke fill"
           y="288.17587"
           x="92.964172"
           id="tspan5579"
           sodipodi:role="line">PROGRAM YOUR OWN LIFE</tspan></text>
    </g>
  </g>
  <g
     id="g5416"
     transform="translate(3.9295775,186.65493)" />
</svg>
